<svg id="Layer_1" data-name="Layer 1" xmlns="http://www.w3.org/2000/svg" viewBox="0 0 146.55 119.01"><defs><style>.cls-1{fill:#fff;}</style></defs><path id="Icon_awesome-twitter" data-name="Icon awesome-twitter" class="cls-1" d="M1151.16,569.66c.09,1.3.09,2.59.09,3.91A84.85,84.85,0,0,1,1067,659h-1.16a84.81,84.81,0,0,1-46.14-13.48,63.29,63.29,0,0,0,7.28.38,60.12,60.12,0,0,0,37.28-12.84,30.09,30.09,0,0,1-28.11-20.83,38.49,38.49,0,0,0,5.67.47,32,32,0,0,0,7.91-1,30,30,0,0,1-24.08-29.48v-.37a30.21,30.21,0,0,0,13.57,3.81,30.08,30.08,0,0,1-9.3-40.17,85.4,85.4,0,0,0,61.94,31.43,34,34,0,0,1-.75-6.89,30.07,30.07,0,0,1,52-20.55,59.19,59.19,0,0,0,19.07-7.28,30,30,0,0,1-13.2,16.55,60.35,60.35,0,0,0,17.29-4.65,64.4,64.4,0,0,1-15.06,15.53Z" transform="translate(-1019.68 -540)"/></svg>