<svg id="Layer_1" data-name="Layer 1" xmlns="http://www.w3.org/2000/svg" viewBox="0 0 1190.9 396.93"><defs><style>.cls-1{fill:#1e1e1e;}</style></defs><g id="Group_10" data-name="Group 10"><g id="Line_1" data-name="Line 1"><path class="cls-1" d="M19.87,185.27H1171.05a19.85,19.85,0,1,1,0,39.7H19.87a19.85,19.85,0,0,1,0-39.7Z" transform="translate(0 -0.03)"/></g><g id="Line_2" data-name="Line 2"><path class="cls-1" d="M191.89,0a19.84,19.84,0,0,1,14.52,33.35l-172,185.25a19.85,19.85,0,0,1-29.1-27l172-185.25A19.81,19.81,0,0,1,191.89,0Z" transform="translate(0 -0.03)"/></g><g id="Line_3" data-name="Line 3"><path class="cls-1" d="M19.87,185.27a19.71,19.71,0,0,1,14,5.82l172,172a19.84,19.84,0,1,1-28.07,28.06l-172-172a19.86,19.86,0,0,1,14-33.89Z" transform="translate(0 -0.03)"/></g></g></svg>