<svg id="Layer_1" data-name="Layer 1" xmlns="http://www.w3.org/2000/svg" viewBox="0 0 119.12 119.03"><defs><style>.cls-1{fill:#fff;}</style></defs><path id="Icon_awesome-instagram" data-name="Icon awesome-instagram" class="cls-1" d="M1039.89,484.75a30.49,30.49,0,1,0,.09,0Zm0,50.38a19.85,19.85,0,1,1,19.84-19.85,19.85,19.85,0,0,1-19.84,19.85Zm38.86-51.61a7.12,7.12,0,1,1-7.12-7.12h0a7.11,7.11,0,0,1,7.12,7.09ZM1099,490.8a33,33,0,0,0-34.58-34.57c-9.83-.56-39.29-.56-49.13,0a32.86,32.86,0,0,0-34.53,34.49c-.55,9.83-.55,39.29,0,49.13a33,33,0,0,0,34.58,34.57c9.83.56,39.29.56,49.13,0A33,33,0,0,0,1099,539.85c.56-9.84.56-39.27,0-49.1Zm-12.67,59.59A20.07,20.07,0,0,1,1075,561.71a131.2,131.2,0,0,1-35.09,2.43,132.51,132.51,0,0,1-35.1-2.43,20.1,20.1,0,0,1-11.32-11.32A131.22,131.22,0,0,1,991,515.3a132.51,132.51,0,0,1,2.43-35.1,20.13,20.13,0,0,1,11.32-11.32,131.27,131.27,0,0,1,35.1-2.43,132.47,132.47,0,0,1,35.09,2.43,20.1,20.1,0,0,1,11.32,11.32,131.27,131.27,0,0,1,2.43,35.1A131.22,131.22,0,0,1,1086.3,550.39Z" transform="translate(-980.31 -455.81)"/></svg>