<svg id="Layer_1" data-name="Layer 1" xmlns="http://www.w3.org/2000/svg" viewBox="0 0 123.32 207.23"><defs><style>.cls-1{fill:#fff;}.cls-2{fill:none;stroke:#fff;stroke-linecap:round;stroke-miterlimit:10;stroke-width:10px;}.cls-3{fill:#2bb673;}.cls-4{fill:#f7941d;}.cls-5{fill:#27aae1;}.cls-6{fill:#ef4136;}</style></defs><path class="cls-1" d="M1513,742.65h-6.29v-2.91h-.09a7.62,7.62,0,0,1-1.07,1.21,8.42,8.42,0,0,1-1.55,1.11,9.7,9.7,0,0,1-2,.82,7.77,7.77,0,0,1-2.21.32,11.49,11.49,0,0,1-4.47-.84,10.13,10.13,0,0,1-3.44-2.37,10.41,10.41,0,0,1-2.21-3.62,13.06,13.06,0,0,1-.78-4.6,14,14,0,0,1,.71-4.44,12.07,12.07,0,0,1,2-3.75,9.7,9.7,0,0,1,3.17-2.62,9,9,0,0,1,4.24-1,11.76,11.76,0,0,1,4,.66,6.34,6.34,0,0,1,3,2.26h.09V708.24H1513Zm-6.29-11.06a5.7,5.7,0,0,0-1.44-4.05,6,6,0,0,0-8.07,0,6.42,6.42,0,0,0,0,8.1,6,6,0,0,0,8.07,0A5.7,5.7,0,0,0,1506.68,731.59Z" transform="translate(-1488.89 -566.36)"/><path class="cls-1" d="M1518.45,720.53h6.84v3.55h.09A8.36,8.36,0,0,1,1528,721a6.5,6.5,0,0,1,3.78-1c.4,0,.79,0,1.19,0a5.77,5.77,0,0,1,1.09.18v6.24a8.46,8.46,0,0,0-1.43-.34,8.87,8.87,0,0,0-1.48-.12,7.22,7.22,0,0,0-3.11.55,4.08,4.08,0,0,0-1.75,1.52,5.84,5.84,0,0,0-.8,2.35,23,23,0,0,0-.18,3v9.24h-6.84Z" transform="translate(-1488.89 -566.36)"/><path class="cls-1" d="M1535.37,731.59a11.56,11.56,0,0,1,1-4.78,10.85,10.85,0,0,1,2.62-3.66,11.55,11.55,0,0,1,3.92-2.35,14.52,14.52,0,0,1,9.62,0,11.59,11.59,0,0,1,3.93,2.35,11.14,11.14,0,0,1,2.62,3.66,12.38,12.38,0,0,1,0,9.56,11,11,0,0,1-2.62,3.66,11.59,11.59,0,0,1-3.93,2.35,14.52,14.52,0,0,1-9.62,0A11.55,11.55,0,0,1,1539,740a10.76,10.76,0,0,1-2.62-3.66A11.56,11.56,0,0,1,1535.37,731.59Zm6.84,0a5.74,5.74,0,0,0,1.43,4,6,6,0,0,0,8.08,0,6.45,6.45,0,0,0,0-8.1,6,6,0,0,0-8.08,0A5.74,5.74,0,0,0,1542.21,731.59Z" transform="translate(-1488.89 -566.36)"/><path class="cls-1" d="M1564,720.53h6.57v3h.09a5.28,5.28,0,0,1,.91-1.27,6.7,6.7,0,0,1,1.41-1.14,8.19,8.19,0,0,1,1.87-.82,7.9,7.9,0,0,1,2.28-.32,9.44,9.44,0,0,1,4.2.8,6.15,6.15,0,0,1,2.49,2.21,8.92,8.92,0,0,1,1.2,3.32,24.42,24.42,0,0,1,.32,4.14v12.2h-6.84V731.82c0-.64,0-1.3-.07-2A6,6,0,0,0,1578,728a3.09,3.09,0,0,0-1-1.41,3.21,3.21,0,0,0-2-.55,4.21,4.21,0,0,0-2.14.48,3.24,3.24,0,0,0-1.25,1.27,5.21,5.21,0,0,0-.57,1.8,15.75,15.75,0,0,0-.14,2.1v11H1564Z" transform="translate(-1488.89 -566.36)"/><path class="cls-1" d="M1611.17,738.83a11,11,0,0,1-4.15,3.23,12.48,12.48,0,0,1-5.2,1.14,13.85,13.85,0,0,1-4.81-.82,11.59,11.59,0,0,1-3.93-2.35,10.89,10.89,0,0,1-2.62-3.66,12.38,12.38,0,0,1,0-9.56,11,11,0,0,1,2.62-3.66,11.59,11.59,0,0,1,3.93-2.35,14.08,14.08,0,0,1,4.81-.82,11.11,11.11,0,0,1,4.31.82,9,9,0,0,1,3.28,2.35,10.66,10.66,0,0,1,2.08,3.66,14.94,14.94,0,0,1,.73,4.78v2.14h-15.88a5.46,5.46,0,0,0,1.78,3.12,5.06,5.06,0,0,0,3.38,1.16,5.17,5.17,0,0,0,2.85-.75,7.77,7.77,0,0,0,2-1.94Zm-5.8-9.74a4,4,0,0,0-1.14-3,4.05,4.05,0,0,0-3-1.23,5.22,5.22,0,0,0-2,.36,5.13,5.13,0,0,0-1.48.94,4.15,4.15,0,0,0-1,1.32,4.27,4.27,0,0,0-.39,1.57Z" transform="translate(-1488.89 -566.36)"/><path class="cls-1" d="M1513.17,766.26l11.41-9.79h-11.14V751h19v6.53l-12,10.05h12.23v5.44h-19.57Z" transform="translate(-1488.89 -566.36)"/><path class="cls-1" d="M1535.87,762a11.46,11.46,0,0,1,1-4.76,10.86,10.86,0,0,1,2.6-3.64,11.63,11.63,0,0,1,3.9-2.34,14.51,14.51,0,0,1,9.56,0,11.44,11.44,0,0,1,3.9,2.34,10.86,10.86,0,0,1,2.6,3.64,12.28,12.28,0,0,1,0,9.52,11,11,0,0,1-2.6,3.65,11.41,11.41,0,0,1-3.9,2.33,14.34,14.34,0,0,1-9.56,0,11.61,11.61,0,0,1-3.9-2.33,11,11,0,0,1-2.6-3.65A11.46,11.46,0,0,1,1535.87,762Zm6.79,0a5.69,5.69,0,0,0,1.43,4,6,6,0,0,0,8,0,6.39,6.39,0,0,0,0-8.06,6,6,0,0,0-8,0A5.71,5.71,0,0,0,1542.66,762Z" transform="translate(-1488.89 -566.36)"/><path class="cls-1" d="M1564.32,751h6.53v3h.09a5.73,5.73,0,0,1,.9-1.27,6.92,6.92,0,0,1,1.41-1.13,8.36,8.36,0,0,1,1.86-.82,7.77,7.77,0,0,1,2.26-.31,9.36,9.36,0,0,1,4.17.79,6,6,0,0,1,2.47,2.2,8.81,8.81,0,0,1,1.2,3.31,25.15,25.15,0,0,1,.32,4.12v12.14h-6.8V762.27c0-.64,0-1.29-.07-2a6.22,6.22,0,0,0-.4-1.88,2.93,2.93,0,0,0-3.06-1.95,4.25,4.25,0,0,0-2.13.47,3.24,3.24,0,0,0-1.25,1.27,5.14,5.14,0,0,0-.56,1.79,14.11,14.11,0,0,0-.14,2.09v11h-6.8Z" transform="translate(-1488.89 -566.36)"/><path class="cls-1" d="M1611.17,769.25a10.72,10.72,0,0,1-4.12,3.21,12.26,12.26,0,0,1-5.16,1.14,14,14,0,0,1-4.79-.82,11.47,11.47,0,0,1-3.89-2.33,11.17,11.17,0,0,1-2.61-3.65,12.4,12.4,0,0,1,0-9.52,11,11,0,0,1,2.61-3.64,11.49,11.49,0,0,1,3.89-2.34,14,14,0,0,1,4.79-.81,11,11,0,0,1,4.28.81,8.92,8.92,0,0,1,3.26,2.34,10.53,10.53,0,0,1,2.06,3.64,14.81,14.81,0,0,1,.73,4.76v2.13h-15.77a5.38,5.38,0,0,0,1.76,3.1,5,5,0,0,0,3.36,1.16,5.1,5.1,0,0,0,2.83-.75,7.82,7.82,0,0,0,2-1.92Zm-5.75-9.7a4,4,0,0,0-1.13-2.95,4.06,4.06,0,0,0-3-1.22,5,5,0,0,0-3.47,1.29,4.28,4.28,0,0,0-1,1.32,4.41,4.41,0,0,0-.38,1.56Z" transform="translate(-1488.89 -566.36)"/><line class="cls-2" x1="96.92" y1="26.17" x2="26.17" y2="99.36"/><line class="cls-2" x1="26.17" y1="26.17" x2="96.92" y2="99.36"/><path class="cls-3" d="M1515.06,576.36a16.17,16.17,0,1,1-16.17,16.17,16.19,16.19,0,0,1,16.17-16.17m0-10a26.17,26.17,0,1,0,26.17,26.17,26.17,26.17,0,0,0-26.17-26.17Z" transform="translate(-1488.89 -566.36)"/><path class="cls-4" d="M1585.81,576.36a16.17,16.17,0,1,1-16.17,16.17,16.19,16.19,0,0,1,16.17-16.17m0-10A26.17,26.17,0,1,0,1612,592.53a26.17,26.17,0,0,0-26.17-26.17Z" transform="translate(-1488.89 -566.36)"/><path class="cls-5" d="M1585.81,649.55a16.17,16.17,0,1,1-16.17,16.17,16.2,16.2,0,0,1,16.17-16.17m0-10A26.17,26.17,0,1,0,1612,665.72a26.17,26.17,0,0,0-26.17-26.17Z" transform="translate(-1488.89 -566.36)"/><path class="cls-6" d="M1515.06,649.55a16.17,16.17,0,1,1-16.17,16.17,16.2,16.2,0,0,1,16.17-16.17m0-10a26.17,26.17,0,1,0,26.17,26.17,26.17,26.17,0,0,0-26.17-26.17Z" transform="translate(-1488.89 -566.36)"/></svg>