<svg id="Layer_1" data-name="Layer 1" xmlns="http://www.w3.org/2000/svg" viewBox="0 0 1190.88 396.96"><defs><style>.cls-1{fill:#1e1e1e;}</style></defs><g id="Group_10" data-name="Group 10"><g id="Line_1" data-name="Line 1"><path class="cls-1" d="M1580.54,514.17H429.36a19.85,19.85,0,0,1,0-39.7H1580.54a19.85,19.85,0,1,1,0,39.7Z" transform="translate(-409.51 -302.45)"/></g><g id="Line_2" data-name="Line 2"><path class="cls-1" d="M1408.52,699.41A19.84,19.84,0,0,1,1394,666.06l172-185.25a19.85,19.85,0,0,1,29.1,27l-172,185.25A19.83,19.83,0,0,1,1408.52,699.41Z" transform="translate(-409.51 -302.45)"/></g><g id="Line_3" data-name="Line 3"><path class="cls-1" d="M1580.54,514.17a19.77,19.77,0,0,1-14-5.82l-172-172a19.84,19.84,0,0,1,28.07-28.06l172,172a19.86,19.86,0,0,1-14,33.89Z" transform="translate(-409.51 -302.45)"/></g></g></svg>