<svg id="Layer_1" data-name="Layer 1" xmlns="http://www.w3.org/2000/svg" viewBox="0 0 405 405"><defs><style>.cls-1{fill:#1e1e1e;}</style></defs><path id="Rectangle_16" data-name="Rectangle 16" class="cls-1" d="M773.72,651.27,1075,350c20.81-20.8,53.62-21.72,73.3-2h0c19.68,19.68,18.76,52.49-2,73.3L845,722.53c-20.81,20.8-53.62,21.72-73.3,2h0C752,704.89,752.92,672.08,773.72,651.27Z" transform="translate(-757.5 -333.75)"/><path id="Rectangle_16-2" data-name="Rectangle 16" class="cls-1" d="M845,350l301.3,301.3c20.8,20.81,21.72,53.62,2,73.3h0c-19.68,19.68-52.49,18.76-73.3-2l-301.3-301.3c-20.8-20.81-21.72-53.62-2-73.3h0C791.36,328.25,824.17,329.17,845,350Z" transform="translate(-757.5 -333.75)"/></svg>