<svg id="Layer_1" data-name="Layer 1" xmlns="http://www.w3.org/2000/svg" viewBox="0 0 169.27 119.08"><defs><style>.cls-1{fill:#fff;}</style></defs><path id="Icon_awesome-youtube" data-name="Icon awesome-youtube" class="cls-1" d="M1001.54,531.84a21.25,21.25,0,0,0-15-15.06,501.06,501.06,0,0,0-66.17-3.55,502.41,502.41,0,0,0-66.14,3.55,21.29,21.29,0,0,0-15,15.06,240,240,0,0,0,0,82,21,21,0,0,0,15,14.82,504.14,504.14,0,0,0,66.14,3.55,503.89,503.89,0,0,0,66.13-3.55,21,21,0,0,0,15-14.82,241,241,0,0,0,0-82ZM903.18,598V547.69l44.16,25.16Z" transform="translate(-835.77 -513.19)"/></svg>