<svg id="Layer_1" data-name="Layer 1" xmlns="http://www.w3.org/2000/svg" viewBox="0 0 582.5 611.63"><defs><style>.cls-1{fill:#1e1e1e;}</style></defs><path id="Rectangle_14" data-name="Rectangle 14" class="cls-1" d="M727,738.68h466a58.25,58.25,0,0,1,58.25,58.25h0A58.25,58.25,0,0,1,1193,855.18H727a58.25,58.25,0,0,1-58.25-58.25h0A58.25,58.25,0,0,1,727,738.68Z" transform="translate(-668.75 -243.56)"/><path id="Rectangle_15" data-name="Rectangle 15" class="cls-1" d="M727,243.56h466a58.25,58.25,0,0,1,58.25,58.25h0A58.25,58.25,0,0,1,1193,360.06H727a58.25,58.25,0,0,1-58.25-58.25h0A58.25,58.25,0,0,1,727,243.56Z" transform="translate(-668.75 -243.56)"/><path id="Rectangle_16" data-name="Rectangle 16" class="cls-1" d="M727,476.56h466a58.25,58.25,0,0,1,58.25,58.25h0A58.25,58.25,0,0,1,1193,593.06H727a58.25,58.25,0,0,1-58.25-58.25h0A58.25,58.25,0,0,1,727,476.56Z" transform="translate(-668.75 -243.56)"/></svg>